<svg xmlns="http://www.w3.org/2000/svg" viewBox="0 0 145.4 242.52" id="logo">
  <defs>
    <style>
      .cls-1{

      fill: #FFF;
      }


    </style>
  </defs>
  <g class="dico" data-name="Calque 2">
    <g data-name="Calque 1">
      <path class="body"  d="M139.2 118.4V93.11a12 12 0 0 0-.07-1.29 8.13 8.13 0 0 0-1.81-5.82l-31.91-44.7c-.91-1.3-4.15-2.3-7.23-2.3h-51c-3.09 0-6.32 1-7.24 2.28L8.08 86a8.13 8.13 0 0 0-1.81 5.85 12 12 0 0 0-.07 1.29v25.26a6.22 6.22 0 0 0-6.2 6.2v51.68a6.22 6.22 0 0 0 6.2 6.2v23.92a12 12 0 0 0 12 12h109a12 12 0 0 0 12-12v-23.92a6.22 6.22 0 0 0 6.2-6.2V124.6a6.22 6.22 0 0 0-6.2-6.2z"/>
      <rect class="pied" x="11.2" y="226.12" width="59.13" height="16.4" rx="8.2" ry="8.2"/>
      <rect class="pied"  x="74.07" y="226.12" width="59.13" height="16.4" rx="8.2" ry="8.2"/>
      <path class="cls-1" d="M124.17 94.68v-.19a4 4 0 0 0-1-2.19L95.49 46.77a3 3 0 0 0-2.22-.77c-1 0-1.58.34-1.36.77L115.66 93a6.22 6.22 0 0 0 .68 1 3.93 3.93 0 0 0-.14 1v107a4 4 0 0 0 8 0V95c0-.11-.03-.21-.03-.32zM52.49 46.77c.22-.43-.4-.77-1.36-.77a3 3 0 0 0-2.22.77L21.27 92.3a4 4 0 0 0-1 2.19V202a4 4 0 0 0 8 0V95a3.93 3.93 0 0 0-.14-1 6.22 6.22 0 0 0 .68-1z"/>
      <path class="cls-1" d="M59.66 46.77c.14-.43-.54-.77-1.5-.77s-1.9.34-2.08.77L36.64 93a4.15 4.15 0 0 0-.25.83A3.93 3.93 0 0 0 36.2 95v107a4 4 0 0 0 8 0V95a3.93 3.93 0 0 0-.14-1 4.89 4.89 0 0 0 .48-1z"/>
      <path class="cls-1" d="M65.17 46c-1 0-1.84.34-1.94.77L52.44 93a3.65 3.65 0 0 0-.09.94A3.93 3.93 0 0 0 52.2 95v107a4 4 0 0 0 8 0V95a3.93 3.93 0 0 0-.14-1 4.05 4.05 0 0 0 .29-1l6.48-46.24c.05-.42-.69-.76-1.66-.76zM76.15 93L74 46.77c0-.43-.83-.77-1.79-.77s-1.77.34-1.79.77L68.25 93a3.65 3.65 0 0 0 .1 1 3.93 3.93 0 0 0-.15 1v107a4 4 0 0 0 8 0V95a3.93 3.93 0 0 0-.2-1 3.65 3.65 0 0 0 .15-1zM92 93L81.16 46.77c-.1-.43-1-.77-1.94-.77s-1.71.34-1.65.77L84.05 93a4.05 4.05 0 0 0 .29 1 3.93 3.93 0 0 0-.14 1v107a4 4 0 0 0 8 0V95a3.93 3.93 0 0 0-.2-1.06 3.65 3.65 0 0 0 0-.94z"/>
      <path class="cls-1"  d="M107.75 93L88.32 46.77c-.18-.43-1.11-.77-2.08-.77s-1.64.34-1.5.77L99.85 93a4.89 4.89 0 0 0 .48 1 3.93 3.93 0 0 0-.14 1v107a4 4 0 0 0 8 0V95a3.93 3.93 0 0 0-.19-1.16 4.15 4.15 0 0 0-.25-.84z"/>
      <path  class="antenne" d="M81.46 10a10 10 0 1 0-12.06 9.78v20.74h4.13V19.78A10 10 0 0 0 81.46 10z"/>
    </g>
  </g>
</svg>
