<svg xmlns="http://www.w3.org/2000/svg" viewBox="0 0 251.81 43.55"><defs><style>.cls-1{fill:#231f20;}</style></defs><title>logo</title><g id="Calque_2" data-name="Calque 2"><g id="Calque_1-2" data-name="Calque 1"><path class="cls-1" d="M21.81,33.86a4.34,4.34,0,0,1,4.31,4.37V55.67H17.43V38.24H8.69V55.67H0V12.11H21.81a4.24,4.24,0,0,1,4.31,4.31V29.55a4.24,4.24,0,0,1-4.31,4.31Zm-4.37-4.31V20.8H8.69v8.75Z" transform="translate(0 -12.11)"/><path class="cls-1" d="M61,16.43V51.3a4.34,4.34,0,0,1-4.31,4.37H39.24a4.44,4.44,0,0,1-4.37-4.37V16.43a4.34,4.34,0,0,1,4.37-4.31H56.67A4.24,4.24,0,0,1,61,16.43ZM43.55,47H52.3V20.8H43.55V47Z" transform="translate(0 -12.11)"/><path class="cls-1" d="M91.54,33.86a4.34,4.34,0,0,1,4.31,4.37V51.3a4.34,4.34,0,0,1-4.31,4.37H69.73V12.11H91.54a4.24,4.24,0,0,1,4.31,4.31V29.55a4.24,4.24,0,0,1-4.31,4.31ZM78.42,29.55h8.75V20.8H78.42Zm0,17.43h8.75V38.24H78.42Z" transform="translate(0 -12.11)"/><path class="cls-1" d="M130.72,16.43V51.3a4.34,4.34,0,0,1-4.31,4.37H109a4.44,4.44,0,0,1-4.37-4.37V16.43A4.34,4.34,0,0,1,109,12.11h17.43a4.24,4.24,0,0,1,4.31,4.31ZM113.29,47H122V20.8h-8.75V47Z" transform="translate(0 -12.11)"/><path class="cls-1" d="M165.59,16.43V51.3a4.34,4.34,0,0,1-4.31,4.37H139.47V12.11h21.81a4.24,4.24,0,0,1,4.31,4.31ZM148.16,47h8.75V20.8h-8.75V47Z" transform="translate(0 -12.11)"/><path class="cls-1" d="M173.39,12.11h8.69V55.67h-8.69V12.11Z" transform="translate(0 -12.11)"/><path class="cls-1" d="M208.26,25.17V20.8h-8.75V47h8.75V42.61h8.69V51.3a4.34,4.34,0,0,1-4.31,4.37H195.2a4.44,4.44,0,0,1-4.37-4.37V16.43a4.34,4.34,0,0,1,4.37-4.31h17.43a4.24,4.24,0,0,1,4.31,4.31v8.75Z" transform="translate(0 -12.11)"/><path class="cls-1" d="M251.81,16.43V51.3a4.34,4.34,0,0,1-4.31,4.37H230.06a4.44,4.44,0,0,1-4.37-4.37V16.43a4.34,4.34,0,0,1,4.37-4.31H247.5a4.24,4.24,0,0,1,4.31,4.31ZM234.38,47h8.75V20.8h-8.75V47Z" transform="translate(0 -12.11)"/></g></g></svg>